<?xml version="1.0" standalone="no"?>
<!DOCTYPE svg PUBLIC "-//W3C//DTD SVG 1.1//EN" "http://www.w3.org/Graphics/SVG/1.1/DTD/svg11.dtd" >
<svg xmlns="http://www.w3.org/2000/svg">
<metadata></metadata>
<defs>
<font id="rutledgebold" horiz-adv-x="1196" >
<font-face units-per-em="2048" ascent="1638" descent="-410" />
<missing-glyph horiz-adv-x="471" />
<glyph horiz-adv-x="0" />
<glyph horiz-adv-x="682" />
<glyph horiz-adv-x="0" />
<glyph horiz-adv-x="0" />
<glyph unicode="&#xd;" horiz-adv-x="1024" />
<glyph unicode=" "  horiz-adv-x="471" />
<glyph unicode="&#x09;" horiz-adv-x="471" />
<glyph unicode="&#xa0;" horiz-adv-x="471" />
<glyph unicode="!" horiz-adv-x="557" d="M141 1415h275l-45 -991h-187zM162 0v256h233v-256h-233z" />
<glyph unicode="&#x22;" horiz-adv-x="870" d="M141 852q29 180 52.5 322.5t31.5 191t8 49.5h211q0 -11 -188 -563h-115zM424 852q29 182 53 323t32.5 190t8.5 50h211q0 -16 -190 -563h-115z" />
<glyph unicode="#" horiz-adv-x="1558" d="M141 399v213h312l16 209h-264v215h282l37 379h217l-36 -379h217l34 379h218l-35 -379h278v-215h-297l-16 -209h248v-213h-267l-36 -399h-218l37 399h-215l-39 -399h-217l39 399h-295zM670 612h217l16 209h-217z" />
<glyph unicode="$" horiz-adv-x="1241" d="M150 137l43 252q44 -51 77 -76q97 -78 228 -102l37 434q-55 25 -94 45t-91 57t-84.5 76t-56 97t-23.5 124q0 91 35.5 164.5t95 119.5t132.5 72t153 30l10 135h183l-13 -148q109 -23 187 -71q33 -20 59 -46l-35 -198q-2 2 -20 16.5t-34 25.5t-42 26t-60 26.5t-73 17.5 l-33 -405q190 -85 275.5 -183.5t85.5 -232.5q0 -91 -40 -166.5t-104.5 -123.5t-137.5 -77t-148 -38l-13 -138h-180l10 142q-145 20 -252 84q-49 25 -77 61zM424 1047q0 -51 33.5 -89t97.5 -71l27 319q-69 -20 -113.5 -61t-44.5 -98zM680 215q73 19 120.5 62t47.5 106 q0 58 -27.5 98.5t-109.5 85.5z" />
<glyph unicode="%" horiz-adv-x="2021" d="M150 1055q0 212 90.5 331t255.5 119t255.5 -119t90.5 -331t-90.5 -331t-255.5 -120q-165 1 -255.5 120t-90.5 331zM354 1057q0 -67 12 -116.5t28 -74.5t38 -40t36 -18t28 -3t28 3t35.5 18t37.5 40t28 74.5t12 116.5q0 63 -11 111t-26.5 73t-36.5 40.5t-36.5 19.5t-30.5 4 t-30.5 -4t-37 -19.5t-37 -40.5t-26.5 -73t-11 -111zM471 0l844 1518h221l-842 -1518h-223zM1180 475q0 217 90 334t256 117t256 -117t90 -334q0 -212 -90.5 -330.5t-255.5 -119.5q-165 1 -255.5 119.5t-90.5 330.5zM1384 477q0 -67 12 -116.5t28 -74.5t38 -40t36 -18t28 -3 t27.5 3t35 18t37.5 40t27.5 74.5t11.5 116.5q0 64 -11 112t-26 73.5t-35.5 41t-36 19.5t-30.5 4t-30.5 -4t-37 -19.5t-37 -41t-26.5 -73.5t-11 -112z" />
<glyph unicode="&#x26;" horiz-adv-x="1464" d="M150 395q0 86 41 164.5t116 138.5l125 97l-53 67q-98 128 -98 242q0 73 24 132t60 94.5t83 59.5t90 33t83 9q152 0 248 -90.5t96 -235.5q0 -136 -140 -258l-106 -88l229 -293q24 59 31 102q6 17 10 56h223q-9 -61 -24 -123q-32 -130 -90 -226l217 -276h-260l-94 117 q-75 -63 -163.5 -98t-174.5 -35q-59 0 -122.5 15.5t-126 49t-112.5 80.5t-81 116.5t-31 149.5zM367 387q0 -79 72 -144t184 -65q47 0 104.5 22.5t108.5 69.5l-277 359l-139 -119q-53 -44 -53 -123zM489 1118q0 -41 37 -94l72 -96l94 76q64 51 64 114q0 60 -35.5 94.5 t-97.5 34.5t-98 -34.5t-36 -94.5z" />
<glyph unicode="'" horiz-adv-x="585" d="M141 852q29 180 52.5 322.5t31.5 191t8 49.5h211q0 -11 -188 -563h-115z" />
<glyph unicode="(" horiz-adv-x="811" d="M141 641q0 237 85.5 450.5t236.5 370.5h207q-57 -57 -109 -126.5t-109 -172.5t-91.5 -239t-34.5 -283q0 -134 31 -263t74 -219t95 -167.5t87 -116t57 -55.5h-207q-152 158 -237 368.5t-85 452.5z" />
<glyph unicode=")" horiz-adv-x="811" d="M141 -180q22 18 56.5 56t86.5 116t94.5 168t73.5 219t31 262q0 119 -24 233t-59.5 199.5t-84.5 165.5t-90 130t-84 93h207q151 -157 236.5 -370.5t85.5 -450.5q0 -242 -85 -452.5t-237 -368.5h-207z" />
<glyph unicode="*" horiz-adv-x="851" d="M150 1010l192 110l-192 109l45 78l186 -111v217h90v-217l186 111l45 -78l-192 -109l192 -110l-45 -76l-186 110v-217h-90v217l-186 -110z" />
<glyph unicode="+" horiz-adv-x="1335" d="M141 657v181h437v436h180v-436h436v-181h-436v-436h-180v436h-437z" />
<glyph unicode="," horiz-adv-x="585" d="M141 -305l45 276q9 60 20.5 131t19.5 112l7 42h211q-1 -1 -13 -41.5t-35.5 -112t-45.5 -131.5q-15 -45 -47 -138t-47 -138h-115z" />
<glyph unicode="-" horiz-adv-x="823" d="M150 559v213h524v-213h-524z" />
<glyph unicode="." horiz-adv-x="514" d="M141 0v256h232v-256h-232z" />
<glyph unicode="/" horiz-adv-x="1243" d="M57 -182l920 1597h209l-920 -1597h-209z" />
<glyph unicode="0" horiz-adv-x="1404" d="M133 709q0 46 3.5 94t17 122.5t36 139.5t66 134.5t101.5 119t147 81.5t198 32t197.5 -32t146.5 -81.5t101.5 -119t66.5 -135t37 -139.5t17.5 -122.5t3.5 -93.5q0 -46 -3.5 -94.5t-17.5 -123t-37 -140t-67 -135t-101.5 -119t-146.5 -81.5t-197 -32t-196.5 32t-146.5 81.5 t-101.5 119t-66.5 135t-37 140t-17.5 123t-3.5 94.5zM375 705q0 -92 12 -167.5t31 -127t47 -91t56.5 -62t62 -37t61.5 -19t57 -4.5t56.5 4.5t61 19t62 37t56 62t47 91t31.5 127t12 167.5q0 96 -13 175.5t-34 132t-50.5 92.5t-58.5 61.5t-62.5 35t-58 17.5t-49.5 4t-50 -4 t-58.5 -17.5t-62.5 -35t-58.5 -61.5t-50.5 -92.5t-34 -132t-13 -175.5z" />
<glyph unicode="1" horiz-adv-x="804" d="M160 975v270l258 172h196v-1417h-243v1108z" />
<glyph unicode="2" horiz-adv-x="1230" d="M139 0v233l559 529q88 86 126 152.5t38 132.5q0 76 -63.5 124t-153.5 48q-122 0 -285 -109q-50 -35 -139 -109v277q79 49 133 76q160 78 305 78q180 0 306.5 -117t126.5 -283q0 -102 -55 -204.5t-175 -217.5l-385 -372h580v-238h-918z" />
<glyph unicode="3" horiz-adv-x="1208" d="M121 109v260q53 -47 115 -86q144 -86 274 -86q122 0 206.5 63t84.5 158q0 90 -68.5 158.5t-200.5 68.5h-180v199h180q122 4 189 55.5t67 138.5t-79.5 136t-194.5 49q-118 0 -250 -62q-51 -24 -108 -61v246q76 32 106 43q123 43 262 43q140 0 259 -52.5t188 -143 t69 -198.5q0 -181 -159 -295q172 -120 172 -329q0 -114 -70 -213.5t-188.5 -158t-255.5 -58.5q-153 0 -299 61q-71 30 -119 64z" />
<glyph unicode="4" horiz-adv-x="1363" d="M139 301v234l551 882h293l-547 -882h352v266h244v-266h207l-82 -234h-125v-301h-244v301h-649z" />
<glyph unicode="5" horiz-adv-x="1224" d="M150 115v239q52 -39 87.5 -62t86 -47.5t107 -36t122.5 -11.5q122 0 207.5 75.5t85.5 180.5q0 118 -72 185t-205 67q-65 0 -133 -29q-28 -12 -51 -29h-166v770h789v-219h-547v-291q85 13 119 13q222 0 358.5 -123t136.5 -344q0 -194 -149 -331.5t-363 -137.5 q-163 0 -305 65q-54 23 -108 66z" />
<glyph unicode="6" horiz-adv-x="1265" d="M139 455q0 113 33.5 222t93 200.5t127 165.5t148.5 139q176 144 403 250v-238q-60 -34 -164 -100q-176 -123 -266 -238q68 14 123 14q203 0 346 -130t143 -314q0 -183 -143.5 -312.5t-345.5 -129.5q-142 0 -259.5 66.5t-180.5 182.5q-58 107 -58 222zM383 510 q-50 -154 61 -248q78 -72 193 -72q112 0 189 68t77 166t-78 168t-188 70q-92 0 -161.5 -42t-92.5 -110z" />
<glyph unicode="7" horiz-adv-x="1198" d="M109 1178v239h981v-233l-533 -1184h-266l522 1178h-704z" />
<glyph unicode="8" horiz-adv-x="1271" d="M139 416q0 98 52.5 187.5t142.5 150.5q-141 128 -141 282q0 163 129.5 279.5t312.5 116.5q184 0 314 -116.5t130 -279.5q0 -154 -141 -282q90 -61 142.5 -150.5t52.5 -187.5q0 -117 -67.5 -216.5t-182.5 -157.5t-248 -58q-204 0 -350 127t-146 305zM373 422 q0 -101 75 -172.5t189 -71.5q111 0 186.5 71.5t75.5 172.5q0 94 -78 168t-186 74q-107 0 -184.5 -74t-77.5 -168zM418 1044q0 -79 65.5 -138.5t153.5 -59.5q85 0 151 61.5t66 136.5q0 85 -64 145t-155 60q-89 0 -153 -60t-64 -145z" />
<glyph unicode="9" horiz-adv-x="1265" d="M139 989q0 120 65.5 222t178 161.5t244.5 59.5q141 0 259 -66.5t181 -183.5q59 -103 59 -219q0 -115 -33.5 -224.5t-93.5 -201t-127.5 -165.5t-148.5 -139q-175 -143 -401 -249v237q20 11 161 101q181 127 269 239q-75 -16 -125 -16q-201 0 -344.5 130t-143.5 314z M360 991q0 -98 79 -167.5t188 -69.5q92 0 162.5 41.5t93.5 109.5q6 19 8.5 41t1.5 58.5t-19 76t-53 72.5q-78 72 -194 72q-112 0 -189.5 -68t-77.5 -166z" />
<glyph unicode=":" horiz-adv-x="514" d="M141 0v258h232v-258h-232zM141 727v258h232v-258h-232z" />
<glyph unicode=";" horiz-adv-x="585" d="M141 -305l70 436q9 60 22 125h211q-29 -117 -188 -561h-115zM213 727v258h231v-258h-231z" />
<glyph unicode="&#x3c;" horiz-adv-x="1261" d="M141 657v156l979 535v-222l-729 -391l729 -391v-221z" />
<glyph unicode="=" horiz-adv-x="1335" d="M141 422v182h1053v-182h-1053zM141 866v183h1053v-183h-1053z" />
<glyph unicode="&#x3e;" horiz-adv-x="1261" d="M141 123v221l727 391l-727 391v222l979 -535v-156z" />
<glyph unicode="?" horiz-adv-x="1095" d="M147 1024v233q53 47 123 86q157 89 301 89q168 0 272.5 -100t104.5 -265q0 -39 -10 -76t-19 -59t-35 -55.5t-34 -43t-39 -42.5l-45 -50q-35 -37 -54.5 -62.5t-41 -64t-32.5 -85t-13 -105.5h-217q2 70 13.5 129.5t26.5 100t43 82t49 66t58 62.5l43 49q45 50 65.5 88.5 t20.5 79.5q0 79 -52 117.5t-122 38.5q-131 0 -279 -107q-62 -41 -127 -106zM401 0v256h232v-256h-232z" />
<glyph unicode="@" horiz-adv-x="1910" d="M147 510q0 227 105 412.5t290 291t412 105.5t412.5 -105.5t291 -291t105.5 -412.5q0 -212 -104 -334.5t-289 -122.5q-121 0 -225 90q-152 -96 -299 -84q-36 3 -73.5 16t-80 42t-76.5 69.5t-59.5 106t-32.5 145.5q-20 213 117 363q116 125 281 125h311l67 -113v-467 q0 -40 21 -63t78 -23q78 0 115.5 73.5t37.5 176.5q0 172 -78.5 313t-215.5 221t-304 80t-302.5 -80t-212.5 -220.5t-77 -313.5q0 -270 165 -441t427 -171q160 0 289 75l98 -176q-175 -94 -387 -94q-176 0 -326 59.5t-256 165.5t-165.5 256t-59.5 326zM752 520 q-13 -229 139 -241h14q63 0 172 77v359h-149q-164 0 -176 -195z" />
<glyph unicode="A" horiz-adv-x="1492" d="M37 0l567 1417h285l567 -1417h-258l-147 373h-609l-149 -373h-256zM526 588h441l-222 559z" />
<glyph unicode="B" horiz-adv-x="1234" d="M180 0v1417h412q75 0 142 -10.5t130 -36t108.5 -64t73 -99.5t27.5 -138q0 -122 -63 -207t-174 -114q148 -26 226.5 -124t78.5 -249q0 -83 -29 -148t-77.5 -107t-116.5 -69.5t-141 -39t-156 -11.5h-441zM428 244h205q258 0 258 190q0 44 -11 77t-38 61t-79.5 42.5 t-129.5 14.5h-205v-385zM428 844h168q231 0 231 184q0 67 -53 111.5t-178 44.5h-168v-340z" />
<glyph unicode="C" horiz-adv-x="1331" d="M106 709q0 59 8.5 121.5t30 134.5t54 137t85.5 126.5t119.5 106t160.5 71t204 26.5q182 0 346 -80q75 -37 119 -78l-35 -213q-92 71 -164 104q-123 58 -248 58q-103 0 -183 -43t-128 -116.5t-72 -163.5t-24 -191q0 -41 4.5 -84t17 -94.5t31.5 -98t51 -90.5t73 -76 t100.5 -51.5t129.5 -19.5q219 0 416 165l35 -213q-46 -39 -121 -81q-160 -82 -348 -82q-118 0 -217 30.5t-166 80t-118.5 116.5t-81 133.5t-48.5 139t-25 126t-6 99.5z" />
<glyph unicode="D" horiz-adv-x="1501" d="M180 0v1417h512q118 0 220.5 -24t192 -77.5t153.5 -134t100.5 -200t36.5 -268.5v-23q0 -146 -35.5 -262.5t-98.5 -196t-153 -132t-195 -76t-229 -23.5h-504zM428 238h256q77 0 140 11t124 41.5t103 80t68 130.5t28 189v23q-2 110 -29 192.5t-69.5 131.5t-104 79 t-123.5 40.5t-137 10.5h-256v-929z" />
<glyph unicode="E" horiz-adv-x="1138" d="M180 0v1417h864v-239h-616v-308h469l-45 -237h-424v-395h616v-238h-864z" />
<glyph unicode="F" horiz-adv-x="1128" d="M180 0v1417h854v-239h-606v-308h459l-45 -237h-414v-633h-248z" />
<glyph unicode="G" horiz-adv-x="1433" d="M106 709q0 59 9 121.5t31.5 134.5t56.5 137t89.5 126.5t125 106t168 71t213.5 26.5q194 0 362 -80q75 -37 125 -78l-37 -213q-211 162 -430 162q-88 0 -160 -28.5t-121 -77t-82.5 -114.5t-49 -140t-15.5 -154q0 -41 4.5 -84t17.5 -94.5t33.5 -98t54 -90.5t77 -76 t105.5 -51.5t136 -19.5q118 0 236 47v278h-258l43 240h456v-613q-6 -6 -26.5 -21t-67 -40.5t-102 -47t-136.5 -38t-165 -16.5q-124 0 -227.5 30.5t-173.5 80t-124 116.5t-85 133.5t-50.5 139t-26 126t-6.5 99.5z" />
<glyph unicode="H" horiz-adv-x="1492" d="M180 0v1417h248v-551h635v551h250v-1417h-250v629h-635v-629h-248z" />
<glyph unicode="I" horiz-adv-x="608" d="M180 0v1417h248v-1417h-248z" />
<glyph unicode="J" horiz-adv-x="917" d="M37 57l43 262q34 -37 63 -53q77 -53 146 -53q92 0 146 64t54 169v971h248v-968q0 -80 -21 -153.5t-64.5 -140t-121 -111t-180.5 -56.5q-36 -4 -55 -4q-88 0 -182 36q-43 14 -76 37z" />
<glyph unicode="K" horiz-adv-x="1284" d="M180 0v1417h248v-586l455 586h325l-585 -669l624 -748h-325l-494 659v-659h-248z" />
<glyph unicode="L" horiz-adv-x="995" d="M180 0v1417h248v-1179h530v-238h-778z" />
<glyph unicode="M" horiz-adv-x="1742" d="M176 0v1417h309l383 -1118l383 1118h312v-1417h-248v958l-314 -958h-264l-313 958v-958h-248z" />
<glyph unicode="N" horiz-adv-x="1554" d="M176 0v1417h270l674 -1038v1038h254v-1417h-276l-674 1032v-1032h-248z" />
<glyph unicode="O" horiz-adv-x="1576" d="M106 709q0 108 24 209.5t77 195.5t130.5 164t193.5 112t257 42t257 -42t193.5 -112t130.5 -164t77 -195.5t24 -209.5q0 -89 -17 -174.5t-51.5 -167.5t-91 -151t-130 -121t-174 -81.5t-218.5 -29.5t-218.5 29.5t-174 81.5t-130 121t-91 151t-51.5 167.5t-17 174.5z M373 709q0 -132 36 -234t96 -160.5t132 -88t151 -29.5q80 0 152.5 29.5t133 88t96.5 160.5t36 234q0 125 -35.5 226.5t-95 164t-133 96t-154.5 33.5t-155 -33.5t-132.5 -96t-93 -164t-34.5 -226.5z" />
<glyph unicode="P" d="M180 0v1417h426q235 -2 369.5 -124t134.5 -343t-133.5 -341t-370.5 -120h-178v-489h-248zM428 727h195q61 0 106 16t69.5 39t39 56t18.5 59t4 55q0 28 -4 53.5t-18.5 58.5t-39.5 57t-71.5 40.5t-108.5 16.5h-190v-451z" />
<glyph unicode="Q" horiz-adv-x="1576" d="M106 709q0 108 24 209.5t77 195.5t130.5 164t193.5 112t257 42t257 -42t193.5 -112t130.5 -164t77 -195.5t24 -209.5q0 -172 -63 -328.5t-188 -257.5l231 -324h-297l-149 213q-179 -28 -216 -28q-118 0 -218.5 29.5t-174 81.5t-130 121t-91 151t-51.5 167.5t-17 174.5z M373 711q0 -133 36 -235t96 -161t132 -88.5t151 -29.5q80 0 152.5 29.5t133 88.5t96.5 161t36 235q0 125 -35.5 225.5t-94.5 163t-133 96t-155 33.5t-155 -33.5t-132.5 -96t-93 -163t-34.5 -225.5z" />
<glyph unicode="R" horiz-adv-x="1208" d="M180 0v1417h426q237 -2 370.5 -117t133.5 -333q0 -349 -324 -426q45 -30 76 -72l309 -469h-292q-43 63 -141 213.5t-140 212.5q-28 44 -61 66t-88 28h-21v-520h-248zM428 758h195q237 0 237 209q0 211 -242 211h-190v-420z" />
<glyph unicode="S" horiz-adv-x="1163" d="M88 137l45 252q50 -56 107 -94q141 -92 309 -92q60 0 119 19t103 62t44 101q0 71 -61.5 127.5t-214.5 114.5q-44 17 -73 28.5t-76 35t-79.5 45t-70 55t-60 69t-38 83.5t-15.5 101q0 77 27 142t72.5 109.5t106 76t126.5 46t135 14.5q169 0 313 -66q57 -26 103 -66 l-37 -198q-16 16 -39 32.5t-64.5 38t-104 35t-134.5 13.5q-63 0 -119.5 -17.5t-95.5 -55t-39 -87.5q0 -73 72.5 -129t203.5 -105q222 -86 322 -189t100 -245q0 -80 -33 -149t-86.5 -116t-121 -80t-136 -48.5t-131.5 -15.5q-222 0 -368 75q-71 38 -111 78z" />
<glyph unicode="T" horiz-adv-x="1175" d="M37 1178v239h1102v-239h-426v-1178h-250v1178h-426z" />
<glyph unicode="U" horiz-adv-x="1515" d="M180 539v878h248v-872q0 -83 24 -145.5t59 -96.5t83 -55t86.5 -27t79.5 -6q43 0 84 7t87.5 29t80.5 57t57 95.5t23 139.5v874h247v-878q0 -87 -18 -161t-47.5 -126.5t-71 -95.5t-84 -70.5t-91.5 -47.5t-88 -30t-79.5 -16t-60.5 -7t-35 -1q-21 0 -51 2.5t-89 15t-114 33 t-117.5 63t-107.5 98.5t-75 145t-30 198z" />
<glyph unicode="V" horiz-adv-x="1439" d="M37 1417h285l397 -1104l399 1104h285l-545 -1417h-276z" />
<glyph unicode="W" horiz-adv-x="2043" d="M37 1417h280l256 -997l291 997h314l292 -997l254 997h283l-410 -1417h-247l-328 1098l-328 -1098h-248z" />
<glyph unicode="X" horiz-adv-x="1378" d="M37 0l504 756l-437 661h291l293 -481l295 481h289l-436 -661l505 -756h-294l-359 575l-356 -575h-295z" />
<glyph unicode="Y" horiz-adv-x="1208" d="M37 1417h276l291 -577l291 577h276l-444 -803v-614h-248v614z" />
<glyph unicode="Z" horiz-adv-x="1249" d="M94 0v174l731 1004h-721v239h1051v-176l-725 -1003h715v-238h-1051z" />
<glyph unicode="[" horiz-adv-x="825" d="M143 -219v1673h547v-162h-373v-1349h373v-162h-547z" />
<glyph unicode="]" horiz-adv-x="825" d="M135 -57h375v1349h-375v162h547v-1673h-547v162z" />
<glyph unicode="_" horiz-adv-x="1290" d="M143 -57h1002v-125h-1002v125z" />
<glyph unicode="a" horiz-adv-x="1118" d="M92 309q0 176 151 262t462 97v49q0 19 -6 37t-23.5 40.5t-59 36t-102.5 13.5q-105 0 -217 -51q-40 -18 -88 -50l-68 162q39 29 99 53q131 56 282 56q107 0 203 -32t159.5 -96t63.5 -145v-741h-178l-29 57q-133 -73 -247 -73q-178 0 -290 89t-112 236zM336 322 q0 -59 49 -103.5t109 -44.5q106 0 211 86v242q-76 -3 -136.5 -13t-98.5 -21.5t-65 -29t-40 -31t-20 -32.5t-8 -28t-1 -23v-2z" />
<glyph unicode="b" d="M170 0v1511h244v-579q160 82 264 82q207 0 313.5 -128.5t108.5 -361.5q0 -253 -118 -396.5t-323 -143.5q-155 0 -278 102l-35 -86h-176zM414 264q127 -90 245 -90q44 0 78.5 21t55 57.5t34 74.5t18.5 84t7 73.5t2 54.5t-2.5 55.5t-14.5 71t-31.5 74.5t-57.5 55.5 t-89 23.5t-121.5 -29.5t-123.5 -64.5v-461z" />
<glyph unicode="c" horiz-adv-x="1048" d="M96 483v29q0 222 133 362t346 140q145 0 277 -66q50 -23 102 -65l-67 -189q-8 8 -16.5 16t-39.5 30t-62.5 37.5t-80.5 28.5t-98 13q-50 0 -91 -16t-66.5 -39.5t-44 -57t-27.5 -62t-14 -60.5t-6 -46t-1 -26v-29q0 -12 1 -26t6 -46.5t14 -61t27.5 -62t44 -57.5t66.5 -40 t91 -16q49 0 98.5 14t80 29t62.5 39t39 30.5t17 16.5l67 -188q-55 -44 -102 -66q-130 -65 -277 -65q-213 0 -346 138.5t-133 360.5z" />
<glyph unicode="d" d="M96 524q0 233 107.5 361.5t314.5 128.5q17 0 33 -1t28 -2.5t28 -5.5t24.5 -5.5t25.5 -8.5t22.5 -9t25 -11t23.5 -11.5t26.5 -14t27.5 -13.5v579h244v-1511h-178l-33 86q-123 -102 -278 -102q-438 0 -441 540zM340 539q0 -27 2 -54.5t7 -73.5t18.5 -84t34 -74.5t55 -57.5 t78.5 -21q115 0 247 90v461q-53 35 -124 64.5t-123 29.5q-51 0 -89 -23.5t-57.5 -55.5t-31.5 -74.5t-14.5 -71t-2.5 -55.5z" />
<glyph unicode="e" horiz-adv-x="1110" d="M96 516q4 220 133.5 359t327.5 139q98 0 179.5 -35.5t132 -89.5t85.5 -121t49.5 -127.5t14.5 -112.5l-90 -100h-578q6 -32 14 -59.5t27.5 -65.5t45 -64.5t68.5 -45.5t97 -19q27 0 52.5 3t45 6t42 11t34.5 12t33 15t27 14.5t26 15.5t21 13l30 -192q-162 -88 -340 -88 q-59 0 -119.5 14.5t-126 53t-116 96t-83 153t-32.5 215.5zM354 608h404q-40 215 -201 215q-88 0 -138.5 -58.5t-64.5 -156.5z" />
<glyph unicode="f" horiz-adv-x="831" d="M37 803v182h213v178q0 157 80.5 236.5t230.5 79.5q89 0 174 -35q44 -19 60 -33l-93 -172q-29 37 -90 37q-19 0 -36.5 -5.5t-38 -20t-33 -46.5t-12.5 -78v-141h249l-69 -182h-180v-803h-242v803h-213z" />
<glyph unicode="g" horiz-adv-x="1193" d="M96 496q0 261 112.5 389.5t326.5 128.5q71 0 135.5 -27t140.5 -76l41 74h172v-1030q0 -73 -23 -145.5t-69.5 -138.5t-128.5 -107t-187 -41q-68 0 -129.5 17.5t-103.5 43t-77.5 58.5t-54 59t-30.5 49l199 100q23 -46 70.5 -84t115.5 -38q80 0 127 52t47 144v121 q-128 -61 -245 -61q-201 0 -320 139t-119 373zM340 496q0 -17 2.5 -45.5t15 -79.5t32.5 -92.5t60 -73t93 -31.5q104 0 237 82v475q-48 32 -116 60t-127 28q-50 0 -88.5 -27t-58 -64t-32 -86t-15.5 -82.5t-3 -63.5z" />
<glyph unicode="h" horiz-adv-x="1171" d="M170 0v1511h244v-561q132 64 250 64q119 0 196.5 -47t114.5 -119q19 -39 28 -88t10 -81.5t1 -115.5v-563h-244v668q0 68 -37.5 109.5t-107.5 41.5q-98 0 -211 -96v-723h-244z" />
<glyph unicode="i" horiz-adv-x="618" d="M168 1307q0 57 42 99t99 42q60 0 101 -40.5t41 -100.5q0 -61 -41 -102.5t-101 -41.5t-100.5 42t-40.5 102zM188 0v985h242v-985h-242z" />
<glyph unicode="j" horiz-adv-x="776" d="M37 -412l43 217q17 -24 37 -38q42 -39 100 -39q127 0 127 166v1091h244v-1100q0 -60 -18 -120.5t-55.5 -116t-105.5 -90.5t-157 -35q-70 0 -150 33q-44 19 -65 32zM324 1307q0 57 42 99t99 42q60 0 100.5 -40.5t40.5 -100.5q0 -61 -40.5 -102.5t-100.5 -41.5t-100.5 42 t-40.5 102z" />
<glyph unicode="k" horiz-adv-x="1130" d="M170 0v1511h244v-852l327 326h320l-512 -481l545 -504h-318l-362 360v-360h-244z" />
<glyph unicode="l" horiz-adv-x="591" d="M174 0v1511h244v-1511h-244z" />
<glyph unicode="m" horiz-adv-x="1767" d="M170 0v985h176l35 -74q61 41 86 52q104 51 197 51q178 0 270 -107l45 27l90 39q98 41 195 41q119 0 196.5 -47t114.5 -119q24 -49 30.5 -101.5t6.5 -138.5v-608h-242v668q0 68 -37.5 109.5t-107.5 41.5q-99 0 -211 -94v-725h-244v668q0 68 -37.5 109.5t-107.5 41.5 q-100 0 -211 -94v-725h-244z" />
<glyph unicode="n" horiz-adv-x="1169" d="M170 0v985h176l35 -74q0 3 38 26.5t109 49.5t136 27q121 0 199 -46.5t112 -119.5q18 -39 27 -87.5t10.5 -84.5t1.5 -109v-567h-244v668q0 68 -37.5 109.5t-107.5 41.5q-100 0 -211 -94v-725h-244z" />
<glyph unicode="o" horiz-adv-x="1200" d="M96 498q0 221 143.5 368.5t360.5 147.5t360.5 -147.5t143.5 -368.5q0 -220 -144 -367t-360 -147t-360 147t-144 367zM336 498q0 -140 74.5 -232t189.5 -92t189.5 92t74.5 232q0 141 -74 231t-190 90t-190 -90t-74 -231z" />
<glyph unicode="p" d="M170 -471v1456h176l35 -74q124 103 278 103q438 0 441 -539q0 -227 -112 -359t-310 -132q-100 0 -264 84v-539h-244zM414 270q150 -96 245 -96q41 0 74.5 17t53.5 45t34.5 59.5t21 66t9 58t2.5 41.5q0 25 -0.5 44.5t-4.5 59t-11 70t-21.5 67t-34.5 60.5t-51.5 40.5 t-71.5 16.5q-121 0 -245 -88v-461z" />
<glyph unicode="q" d="M96 475q3 539 441 539q68 0 144.5 -29t131.5 -74l41 74h172v-1456h-244v539q-57 -28 -90 -42.5t-82.5 -28t-91.5 -13.5q-202 0 -312 130t-110 361zM340 461q0 -23 3.5 -52.5t16 -72.5t32.5 -77.5t57 -59.5t86 -25q97 0 247 96v461q-124 88 -247 88q-39 0 -70 -16.5 t-51 -41t-34.5 -60t-22 -67t-11.5 -69.5t-5 -59.5t-1 -44.5z" />
<glyph unicode="r" horiz-adv-x="876" d="M170 0v985h176l35 -74q124 103 278 103q87 0 181 -35l-92 -205q-33 29 -93 29q-117 0 -241 -88v-715h-244z" />
<glyph unicode="s" horiz-adv-x="915" d="M88 102l47 207q29 -34 90 -76q106 -75 215 -75q76 0 120 34t44 87q0 42 -40 73.5t-136 67.5q-136 53 -195 92q-135 89 -135 221q0 36 11.5 73.5t38.5 75t66.5 66.5t101 47.5t135.5 18.5q118 0 241 -49q56 -24 96 -47l-67 -173q-114 95 -266 95q-59 0 -98.5 -23.5 t-39.5 -71.5q0 -31 27 -57.5t56 -40.5t75 -31q142 -52 198 -85q154 -89 154 -234q0 -125 -97.5 -219t-264.5 -94q-149 0 -275 59q-50 21 -102 59z" />
<glyph unicode="t" horiz-adv-x="835" d="M37 803v182h213v225l82 133h160v-358h249l-69 -182h-180v-449q0 -166 126 -166q42 0 80 21t60 45l41 -205q-25 -15 -66 -33q-78 -32 -149 -32q-72 0 -130.5 23.5t-95.5 60.5t-62 86t-35.5 96.5t-10.5 95.5v457h-213z" />
<glyph unicode="u" horiz-adv-x="1179" d="M170 356v629h244v-655q0 -69 36 -112.5t105 -43.5q103 0 211 96v715h244v-985h-176l-35 86q0 -3 -38 -26.5t-109 -49t-136 -26.5q-120 0 -198.5 46.5t-112.5 116.5q-35 71 -35 209z" />
<glyph unicode="v" horiz-adv-x="1087" d="M49 983h256l240 -672l237 674h256l-397 -985h-195z" />
<glyph unicode="w" horiz-adv-x="1646" d="M49 985h254l213 -666l213 666h186l215 -666l213 666h254l-354 -985h-227l-193 598l-194 -598h-226z" />
<glyph unicode="x" horiz-adv-x="1032" d="M49 0l338 492l-338 493h283l184 -309l184 309h283l-338 -493l338 -492h-283l-184 309l-184 -309h-283z" />
<glyph unicode="y" horiz-adv-x="1071" d="M49 985h256l230 -680l229 680h258l-410 -1067q-21 -55 -41.5 -97t-58.5 -96.5t-82 -91.5t-111.5 -66.5t-148.5 -37.5l-68 215q15 -1 29 -1q33 0 61 5q39 7 83.5 30t83 75t67.5 131z" />
<glyph unicode="z" horiz-adv-x="1026" d="M104 0v199l582 604l-557 2v180h789v-203l-547 -602h551v-180h-818z" />
<glyph unicode="{" horiz-adv-x="917" d="M141 530v175h15q74 0 120 48.5t46 133.5v289q0 143 67 210.5t219 67.5h168v-176h-100q-95 0 -130.5 -40.5t-35.5 -141.5v-240q0 -165 -143 -238v-2q143 -73 143 -237v-240q0 -105 35 -143.5t131 -38.5h100v-176h-168q-152 0 -219 67.5t-67 210.5v289q0 85 -46 133.5 t-120 48.5h-15z" />
<glyph unicode="|" horiz-adv-x="487" d="M141 -334v1854h205v-1854h-205z" />
<glyph unicode="}" horiz-adv-x="917" d="M141 -43h103q94 0 129 39t35 143v240q0 163 145 237v2q-145 74 -145 238v240q0 102 -34.5 142t-129.5 40h-103v176h168q152 0 219.5 -67.5t67.5 -210.5v-289q0 -85 46 -133.5t120 -48.5h14v-175h-14q-74 0 -120 -48.5t-46 -133.5v-289q0 -143 -67.5 -210.5t-219.5 -67.5 h-168v176z" />
<glyph unicode="~" horiz-adv-x="1230" d="M141 559q0 34 4 68t20 80.5t42 80.5t75 58t115 24q37 0 91 -14.5t86.5 -27t101.5 -40.5q16 -6 46 -19.5t46 -20t36.5 -12t35.5 -5.5q75 0 75 111h175q0 -34 -4 -68t-20 -80.5t-42 -80.5t-75 -58.5t-115 -24.5q-33 0 -85 14t-82 25.5t-102 40.5q-14 6 -48.5 21.5t-48 21 t-36 11.5t-39.5 6q-36 0 -57 -23t-21 -88h-174z" />
<glyph unicode="&#xa9;" horiz-adv-x="1810" d="M150 686q0 154 59.5 294t160.5 241t241 161t294 60t294 -60t241 -161t161 -241t60 -294t-60 -294t-161 -241t-241 -161t-294 -60t-294 60t-241 161t-160.5 241t-59.5 294zM301 688q0 -165 80.5 -304t219.5 -219.5t304 -80.5t304 80.5t219.5 219.5t80.5 304t-80.5 304 t-219.5 219.5t-304 80.5t-304 -80.5t-219.5 -219.5t-80.5 -304zM530 686q0 49 10 100.5t37 110.5t68 104t110.5 75t157.5 30q105 0 201 -47q39 -20 70 -45l-21 -123l-30 21q-30 20 -53.5 33t-67 26.5t-86.5 13.5q-79 0 -134.5 -44t-79.5 -109.5t-24 -145.5q0 -34 5.5 -69 t21.5 -77.5t41 -74.5t69 -54t101 -22q45 0 89.5 13.5t68.5 27.5t51.5 34t29.5 21l21 -123q-34 -29 -70 -49q-88 -47 -203 -47q-94 0 -166.5 34t-112 82t-64.5 110t-32.5 108t-7.5 86z" />
<glyph unicode="&#xad;" horiz-adv-x="823" d="M150 559v213h524v-213h-524z" />
<glyph unicode="&#xae;" horiz-adv-x="1810" d="M150 686q0 154 59.5 294t160.5 241t241 161t294 60t294 -60t241 -161t161 -241t60 -294t-60 -294t-161 -241t-241 -161t-294 -60t-294 60t-241 161t-160.5 241t-59.5 294zM301 688q0 -165 80.5 -304t219.5 -219.5t304 -80.5t304 80.5t219.5 219.5t80.5 304t-80.5 304 t-219.5 219.5t-304 80.5t-304 -80.5t-219.5 -219.5t-80.5 -304zM647 276v820h246q138 0 215.5 -66.5t77.5 -193.5q0 -200 -189 -248q32 -18 45 -41q30 -48 94 -143.5t85 -127.5h-170q-110 168 -162 246q-18 26 -36.5 39t-49.5 17h-12v-302h-144zM791 715h112q137 0 137 121 q0 20 -4.5 38t-17.5 38.5t-43 33t-74 12.5h-110v-243z" />
<glyph unicode="&#xb0;" horiz-adv-x="1032" d="M150 1047q0 152 107 259t259 107t259.5 -107t107.5 -259t-107.5 -259.5t-259.5 -107.5t-259 107.5t-107 259.5zM317 1047q0 -88 58 -150.5t141 -62.5q82 0 140.5 62.5t58.5 150.5q0 90 -58.5 151.5t-140.5 61.5q-86 0 -142.5 -60.5t-56.5 -152.5z" />
<glyph unicode="&#xb7;" horiz-adv-x="571" d="M150 729q0 57 40 97t97 40q56 0 95.5 -40t39.5 -97q0 -55 -40 -95t-95 -40q-57 0 -97 39.5t-40 95.5z" />
<glyph unicode="&#x2000;" horiz-adv-x="782" />
<glyph unicode="&#x2001;" horiz-adv-x="1565" />
<glyph unicode="&#x2002;" horiz-adv-x="782" />
<glyph unicode="&#x2003;" horiz-adv-x="1565" />
<glyph unicode="&#x2004;" horiz-adv-x="521" />
<glyph unicode="&#x2005;" horiz-adv-x="391" />
<glyph unicode="&#x2006;" horiz-adv-x="260" />
<glyph unicode="&#x2007;" horiz-adv-x="260" />
<glyph unicode="&#x2008;" horiz-adv-x="195" />
<glyph unicode="&#x2009;" horiz-adv-x="313" />
<glyph unicode="&#x200a;" horiz-adv-x="86" />
<glyph unicode="&#x2010;" horiz-adv-x="823" d="M150 559v213h524v-213h-524z" />
<glyph unicode="&#x2011;" horiz-adv-x="823" d="M150 559v213h524v-213h-524z" />
<glyph unicode="&#x2012;" horiz-adv-x="823" d="M150 559v213h524v-213h-524z" />
<glyph unicode="&#x2013;" horiz-adv-x="1468" d="M150 559v213h1169v-213h-1169z" />
<glyph unicode="&#x2014;" horiz-adv-x="1951" d="M150 559v213h1652v-213h-1652z" />
<glyph unicode="&#x2018;" horiz-adv-x="585" d="M141 852q0 2 15.5 47.5t66 192.5t109.5 323h112q-29 -184 -52.5 -325.5t-31.5 -189t-8 -48.5h-211z" />
<glyph unicode="&#x2019;" horiz-adv-x="585" d="M141 852q29 180 52.5 322.5t31.5 191t8 49.5h211q0 -11 -188 -563h-115z" />
<glyph unicode="&#x201c;" horiz-adv-x="870" d="M141 852q0 2 15.5 47.5t66 192.5t109.5 323h112q-29 -184 -52.5 -325.5t-31.5 -189t-8 -48.5h-211zM424 852q0 1 14.5 44.5t66.5 197t109 321.5h115q-29 -184 -53 -325t-32.5 -189t-8.5 -49h-211z" />
<glyph unicode="&#x201d;" horiz-adv-x="870" d="M141 852q29 180 52.5 322.5t31.5 191t8 49.5h211q0 -11 -188 -563h-115zM424 852q29 182 53 323t32.5 190t8.5 50h211q0 -16 -190 -563h-115z" />
<glyph unicode="&#x2022;" horiz-adv-x="741" d="M141 754q0 94 68 161.5t162 67.5t161.5 -67.5t67.5 -161.5t-67.5 -162t-161.5 -68t-162 68t-68 162z" />
<glyph unicode="&#x2026;" horiz-adv-x="1488" d="M150 0v256h231v-256h-231zM629 0v256h231v-256h-231zM1108 0v256h231v-256h-231z" />
<glyph unicode="&#x202f;" horiz-adv-x="313" />
<glyph unicode="&#x2039;" horiz-adv-x="804" d="M150 471l299 473h206l-278 -473l278 -471h-209z" />
<glyph unicode="&#x203a;" horiz-adv-x="804" d="M150 0l278 471l-278 473h206l299 -473l-297 -471h-208z" />
<glyph unicode="&#x205f;" horiz-adv-x="391" />
<glyph unicode="&#x2122;" horiz-adv-x="1767" d="M109 1241v127h632v-127h-245v-633h-142v633h-245zM864 608v760h178l220 -598l219 598h178v-760h-141v514l-181 -514h-151l-180 514v-514h-142z" />
<glyph unicode="&#x25fc;" horiz-adv-x="983" d="M0 0v983h983v-983h-983z" />
</font>
</defs>
</svg>
